<?xml version="1.0" encoding="utf-8"?>
<!-- Generator: Adobe Illustrator 27.0.0, SVG Export Plug-In . SVG Version: 6.00 Build 0)  -->
<svg version="1.1" id="Layer_1" xmlns="http://www.w3.org/2000/svg" xmlns:xlink="http://www.w3.org/1999/xlink" x="0px" y="0px"
	 viewBox="0 0 196.7 279.1" style="enable-background:new 0 0 196.7 279.1;" xml:space="preserve">
<style type="text/css">
	.st0{opacity:0.19;fill:#070707;}
	.st1{fill:#006318;}
	.st2{fill:#279436;}
	.st3{fill:#FFFFFF;}
</style>
<ellipse class="st0" cx="132.1" cy="273" rx="29.2" ry="6.1"/>
<g>
	<g>
		<g>
			<polygon class="st1" points="132.1,273 132.1,196.7 196.7,196.7 			"/>
			<g>
				<g>
					<rect class="st2" width="196.7" height="196.7"/>
				</g>
			</g>
		</g>
	</g>
	<g>
		<path class="st3" d="M34.2,132.1c0-19.4,0-38.9,0-58.3c0.3-0.3,0.2-0.7,0.3-1c1.2-8.5,9-15.6,17.6-15.8c5.8-0.1,11.6-0.1,17.5-0.1
			c1.2,0,1.6-0.2,1.5-1.5c-0.1-3,0-6,0-9c0-5.8,3.8-9.8,9.6-9.8c10.2-0.1,20.3-0.1,30.5,0c5.8,0.1,9.5,4,9.5,9.8c0,3.1,0,6.2,0,9.3
			c0,0.9,0.2,1.2,1.2,1.2c5.3,0,10.6,0,15.9,0c1.7,0,3.4,0.1,5,0.5c8.9,2.2,14.8,9.6,14.8,18.7c0,18,0,36.1,0,54.1
			c0,1.5-0.2,3-0.6,4.4c-2,6.8-8,11.3-15.6,11.3c-18.6,0-37.3,0-55.9,0c-11.7,0-23.4,0-35.2,0c-7.8,0-13.9-4.8-15.7-12.2
			C34.5,133.1,34.6,132.5,34.2,132.1z M41.5,96.6c0,0.4,0,0.7,0,1.1c0,10.6,0,21.1,0,31.7c0,5.7,3.4,9.2,9.1,9.2
			c30.2,0,60.4,0,90.6,0c1,0,1.9,0,2.9-0.3c4-1.1,6.3-4.2,6.3-8.6c0-10.7,0-21.4,0-32.2c0-0.3,0.1-0.6-0.2-1
			c-1.6,0.8-3.2,1.5-4.9,1.9c-11,2.7-22,5.4-32.9,8c-2.8,0.7-2.8,0.7-2.9,3.5c-0.2,5-3.6,8.5-8.5,8.6c-3.4,0.1-6.7,0.1-10.1,0
			c-3.5-0.1-6.1-1.7-7.7-4.9c-0.8-1.7-0.9-3.5-0.8-5.3c0.1-1-0.3-1.4-1.3-1.6c-6-1.4-12.1-2.8-18.1-4.4
			C55.8,100.5,48.5,99.4,41.5,96.6z M96,64.1c-2.2,0-4.3,0-6.5,0c-11.9,0-23.8,0-35.8,0c-6.4,0-11.3,4.1-12.1,10.4
			c-0.4,3.2-0.4,6.5,0,9.7c0.4,3.6,2.5,6,6,6.9c11.3,2.8,22.6,5.5,33.9,8.3c0.7,0.2,0.9,0.1,1-0.7c0.6-4.3,3.8-7.2,8.2-7.4
			c3.5-0.1,7-0.1,10.5,0c4.3,0.1,7.7,3.1,8.2,7.2c0.1,0.9,0.4,1,1.2,0.8c11-2.7,22.1-5.4,33.2-8.1c4.1-1,6.6-4.1,6.6-8.3
			c0-2.4,0-4.8,0-7.2c0-1.8-0.4-3.4-1.2-5c-2.3-4.5-6.1-6.7-11.1-6.7C124,64.1,110,64.1,96,64.1z M95.9,56.8c5.5,0,11,0,16.5,0
			c0.8,0,1.1-0.2,1.1-1.1c0-3.2,0-6.3,0-9.5c0-1.8-0.7-2.5-2.6-2.5c-10,0-20,0-30,0c-1.9,0-2.5,0.7-2.5,2.6c0,3.1,0,6.2,0,9.3
			c0,1,0.3,1.3,1.3,1.3C85,56.8,90.4,56.8,95.9,56.8z M89.6,104.9c0,1.6,0,3.3,0,4.9c0,1.1,0.5,1.5,1.6,1.5c3.2,0,6.3,0,9.5,0
			c1,0,1.6-0.5,1.6-1.5c0-3.2,0-6.4,0-9.6c0-1.1-0.5-1.5-1.6-1.6c-3.2,0-6.3,0-9.5,0c-1,0-1.6,0.5-1.6,1.5
			C89.6,101.7,89.6,103.3,89.6,104.9z"/>
	</g>
</g>
</svg>
