<?xml version="1.0" encoding="utf-8"?>
<!-- Generator: Adobe Illustrator 27.0.0, SVG Export Plug-In . SVG Version: 6.00 Build 0)  -->
<svg version="1.1" id="Layer_1" xmlns="http://www.w3.org/2000/svg" xmlns:xlink="http://www.w3.org/1999/xlink" x="0px" y="0px"
	 viewBox="0 0 403.44 435.35" style="enable-background:new 0 0 403.44 435.35;" xml:space="preserve">
<style type="text/css">
	.st0{opacity:0.35;enable-background:new    ;}
	.st1{opacity:0.46;fill:#F9FF03;enable-background:new    ;}
	.st2{fill:#F9E606;}
	.st3{fill:#FF0000;}
</style>
<g>
	<path class="st0" d="M303.66,416.47c-40.71,18.47-82.63,23.03-115.79,15.25c-1.65-0.39-3.28-0.8-4.89-1.25l-34.9-61.37
		c-8.39-1.76-16.57-4.08-24.5-6.93c-0.13-6.58,0.63-13.31,2.22-20.08c9.11-38.78,45.38-78.97,97.55-102.64
		c44.74-20.3,90.94-23.8,125.37-12.58c6.47,2.1,12.52,4.73,18.07,7.86c13.79,7.76,24.48,18.65,30.73,32.43
		C419.7,316.04,377.67,382.89,303.66,416.47z"/>
	<path class="st1" d="M373.08,186.54c0,16.66-2.19,32.82-6.29,48.19c-18.07,67.77-73.36,120.36-142.64,134.55
		c-12.15,2.48-24.73,3.79-37.61,3.79c-13.19,0-26.05-1.37-38.46-3.97c-8.39-1.76-16.57-4.08-24.5-6.93
		C51.54,336.35,0,267.47,0,186.54C0,83.51,83.52,0,186.54,0S373.08,83.51,373.08,186.54z"/>
	<path class="st2" d="M353.66,186.36c0,13.97-1.71,27.54-4.94,40.51c-13.96,56.04-56.2,100.88-110.69,118.51l-13.88,23.9
		l-36.28,62.44l-2.11,3.63l-2.78-4.88l-34.9-61.37l-13.58-23.89c-2.94-0.96-5.84-2-8.7-3.12C63.53,317.78,19.41,257.23,19.41,186.36
		c0-92.3,74.83-167.13,167.13-167.13S353.66,94.06,353.66,186.36z"/>
</g>
<g>
	<path class="st3" d="M193.47,281.49c-4.62,0-9.24,0-13.86,0c-0.44-0.42-1.01-0.34-1.54-0.38c-10.91-0.8-21.41-3.35-31.49-7.54
		c-43.49-18.06-70.66-63.56-63.18-112.38c3.08-20.1,11.12-38.04,24.86-53c27.33-29.76,61.15-40.8,100.77-32.93
		c41.34,8.22,74.75,44.1,80.65,85.91c0.42,3,0.82,6.01,1.23,9.02c0,4.62,0,9.24,0,13.86c-0.43,0.44-0.35,1.01-0.39,1.54
		c-0.65,9.25-2.42,18.31-5.81,26.92c-14.88,37.86-42.29,60.59-82.44,67.76C199.36,280.79,196.41,281.09,193.47,281.49z
		 M114.78,177.64c0.18,12.4,3.31,24.39,9.7,35.53c0.87,1.51,1.29,1.71,2.62,0.38c31.91-31.98,63.86-63.93,95.84-95.84
		c1.25-1.25,1.31-1.72-0.31-2.63c-15.56-8.8-32.16-11.8-49.67-8.34C138.9,113.45,114.86,142.76,114.78,177.64z M187.02,248.9
		c5.04-0.15,10.49-0.7,15.87-1.97c46.8-11.04,69.8-63.87,45.71-105.84c-0.91-1.59-1.38-1.61-2.65-0.33
		c-31.91,31.99-63.86,63.94-95.84,95.86c-1.22,1.22-1.13,1.68,0.33,2.52C161.63,245.57,173.68,248.73,187.02,248.9z"/>
</g>
</svg>
