<?xml version="1.0" encoding="utf-8"?>
<!-- Generator: Adobe Illustrator 27.0.0, SVG Export Plug-In . SVG Version: 6.00 Build 0)  -->
<svg version="1.1" id="Layer_1" xmlns="http://www.w3.org/2000/svg" xmlns:xlink="http://www.w3.org/1999/xlink" x="0px" y="0px"
	 viewBox="0 0 403.44 435.35" style="enable-background:new 0 0 403.44 435.35;" xml:space="preserve">
<style type="text/css">
	.st0{opacity:0.07;}
	.st1{opacity:0.46;fill:#21438D;}
	.st2{fill:#2D499F;}
	.st3{fill:#FFFFFF;}
</style>
<g>
	<path class="st0" d="M303.66,416.47c-40.71,18.47-82.63,23.03-115.79,15.25c-1.65-0.39-3.28-0.8-4.89-1.25l-34.9-61.37
		c-8.39-1.76-16.57-4.08-24.5-6.93c-0.13-6.58,0.63-13.31,2.22-20.08c9.11-38.78,45.38-78.97,97.55-102.64
		c44.74-20.3,90.94-23.8,125.37-12.58c6.47,2.1,12.52,4.73,18.07,7.86c13.79,7.76,24.48,18.65,30.73,32.43
		C419.7,316.04,377.67,382.89,303.66,416.47z"/>
	<path class="st1" d="M373.08,186.54c0,16.66-2.19,32.82-6.29,48.19c-18.07,67.77-73.36,120.36-142.64,134.55
		c-12.15,2.48-24.73,3.79-37.61,3.79c-13.19,0-26.05-1.37-38.46-3.97c-8.39-1.76-16.57-4.08-24.5-6.93
		C51.54,336.35,0,267.47,0,186.54C0,83.51,83.52,0,186.54,0S373.08,83.51,373.08,186.54z"/>
	<path class="st2" d="M353.66,186.36c0,13.97-1.71,27.54-4.94,40.51c-13.96,56.04-56.2,100.88-110.69,118.51l-13.88,23.9
		l-36.28,62.44l-2.11,3.63l-2.78-4.88l-34.9-61.37l-13.58-23.89c-2.94-0.96-5.84-2-8.7-3.12C63.53,317.78,19.41,257.23,19.41,186.36
		c0-92.3,74.83-167.13,167.13-167.13S353.66,94.06,353.66,186.36z"/>
</g>
<g>
	<path class="st3" d="M67.09,146.57h19.77l19.64,38.31c2.82,5.4,5.4,11.79,7.86,18.05h0.49c-0.98-8.59-2.46-20.01-2.46-29.47v-26.89
		h18.05v79.92h-19.64l-19.77-38.31c-2.7-5.4-5.28-11.79-7.73-18.05H82.8c0.98,8.84,2.46,19.89,2.46,29.47v26.89H67.09V146.57z"/>
	<path class="st3" d="M148.97,146.57h50.58v15.96h-31.43v14.98h26.89v15.96h-26.89v17.07h32.66v15.96h-51.81V146.57z"/>
	<path class="st3" d="M208.88,146.57h19.4l5.03,36.59c1.11,8.47,2.09,16.82,2.95,25.54h0.49c1.47-8.72,3.07-17.19,4.67-25.54
		l8.35-36.59h16.45l8.1,36.59c1.6,8.1,3.19,16.7,4.67,25.54h0.49c0.86-8.84,1.96-17.31,2.95-25.54l5.4-36.59h18.17l-14.12,79.92
		h-24.19l-7.24-34.99c-1.35-6.26-2.21-12.52-2.95-18.91h-0.49c-0.86,6.38-1.72,12.65-3.07,18.91l-6.88,34.99h-23.82L208.88,146.57z"
		/>
</g>
</svg>
