<?xml version="1.0" encoding="utf-8"?>
<!-- Generator: Adobe Illustrator 27.0.0, SVG Export Plug-In . SVG Version: 6.00 Build 0)  -->
<svg version="1.1" id="Layer_1" xmlns="http://www.w3.org/2000/svg" xmlns:xlink="http://www.w3.org/1999/xlink" x="0px" y="0px"
	 viewBox="0 0 403.44 435.35" style="enable-background:new 0 0 403.44 435.35;" xml:space="preserve">
<style type="text/css">
	.st0{opacity:0.35;}
	.st1{opacity:0.46;fill:#32BDEE;}
	.st2{fill:#44B3E6;}
	.st3{fill:#FFFFFF;}
</style>
<g>
	<path class="st0" d="M303.66,416.47c-40.71,18.47-82.63,23.03-115.79,15.25c-1.65-0.39-3.28-0.8-4.89-1.25l-34.9-61.37
		c-8.39-1.76-16.57-4.08-24.5-6.93c-0.13-6.58,0.63-13.31,2.22-20.08c9.11-38.78,45.38-78.97,97.55-102.64
		c44.74-20.3,90.94-23.8,125.37-12.58c6.47,2.1,12.52,4.73,18.07,7.86c13.79,7.76,24.48,18.65,30.73,32.43
		C419.7,316.04,377.67,382.89,303.66,416.47z"/>
	<path class="st1" d="M373.08,186.54c0,16.66-2.19,32.82-6.29,48.19c-18.07,67.77-73.36,120.36-142.64,134.55
		c-12.15,2.48-24.73,3.79-37.61,3.79c-13.19,0-26.05-1.37-38.46-3.97c-8.39-1.76-16.57-4.08-24.5-6.93
		C51.54,336.35,0,267.47,0,186.54C0,83.51,83.52,0,186.54,0S373.08,83.51,373.08,186.54z"/>
	<path class="st2" d="M353.66,186.36c0,13.97-1.71,27.54-4.94,40.51c-13.96,56.04-56.2,100.88-110.69,118.51l-13.88,23.9
		l-36.28,62.44l-2.11,3.63l-2.78-4.88l-34.9-61.37l-13.58-23.89c-2.94-0.96-5.84-2-8.7-3.12C63.53,317.78,19.41,257.23,19.41,186.36
		c0-92.3,74.83-167.13,167.13-167.13S353.66,94.06,353.66,186.36z"/>
</g>
<circle class="st3" cx="180.98" cy="181.12" r="61.88"/>
</svg>
