<?xml version="1.0" encoding="utf-8"?>
<!-- Generator: Adobe Illustrator 27.0.0, SVG Export Plug-In . SVG Version: 6.00 Build 0)  -->
<svg version="1.1" id="Layer_1" xmlns="http://www.w3.org/2000/svg" xmlns:xlink="http://www.w3.org/1999/xlink" x="0px" y="0px"
	 viewBox="0 0 403.44 435.35" style="enable-background:new 0 0 403.44 435.35;" xml:space="preserve">
<style type="text/css">
	.st0{opacity:0.07;}
	.st1{opacity:0.46;fill:#F15B22;}
	.st2{fill:#F07A22;}
	.st3{fill:#FFFFFF;}
</style>
<g>
	<path class="st0" d="M303.66,416.47c-40.71,18.47-82.63,23.03-115.79,15.25c-1.65-0.39-3.28-0.8-4.89-1.25l-34.9-61.37
		c-8.39-1.76-16.57-4.08-24.5-6.93c-0.13-6.58,0.63-13.31,2.22-20.08c9.11-38.78,45.38-78.97,97.55-102.64
		c44.74-20.3,90.94-23.8,125.37-12.58c6.47,2.1,12.52,4.73,18.07,7.86c13.79,7.76,24.48,18.65,30.73,32.43
		C419.7,316.04,377.67,382.89,303.66,416.47z"/>
	<path class="st1" d="M373.08,186.54c0,16.66-2.19,32.82-6.29,48.19c-18.07,67.77-73.36,120.36-142.64,134.55
		c-12.15,2.48-24.73,3.79-37.61,3.79c-13.19,0-26.05-1.37-38.46-3.97c-8.39-1.76-16.57-4.08-24.5-6.93
		C51.54,336.35,0,267.47,0,186.54C0,83.51,83.52,0,186.54,0S373.08,83.51,373.08,186.54z"/>
	<path class="st2" d="M353.66,186.36c0,13.97-1.71,27.54-4.94,40.51c-13.96,56.04-56.2,100.88-110.69,118.51l-13.88,23.9
		l-36.28,62.44l-2.11,3.63l-2.78-4.88l-34.9-61.37l-13.58-23.89c-2.94-0.96-5.84-2-8.7-3.12C63.53,317.78,19.41,257.23,19.41,186.36
		c0-92.3,74.83-167.13,167.13-167.13S353.66,94.06,353.66,186.36z"/>
</g>
<g>
	<path class="st3" d="M258.67,286.36c-2.62-0.91-4.52-2.77-6.4-4.72c-14.55-15.09-29.13-30.15-43.7-45.21
		c-1.36-1.41-2.58-2.93-3.31-4.76c-0.72-1.82-0.9-3.57,0.38-5.33c1.4-1.94,0.42-3.87-0.51-5.65c-2.01-3.86-2.25-3.85-5.72-1.4
		c-14.13,9.99-29.84,14.18-47.06,12.5c-19.11-1.87-34.86-10.37-46.89-25.19c-12.68-15.61-17.65-33.66-14.77-53.64
		c2.94-20.37,13.21-36.35,30.18-47.77c14.37-9.68,30.38-13.22,47.63-10.93c15.39,2.05,28.59,8.63,39.56,19.48
		c10.26,10.14,16.79,22.42,19.28,36.67c3.28,18.77-0.49,36.09-11.23,51.87c-1.77,2.6-1.76,2.57,0.7,4.61
		c1.23,1.02,2.59,1.76,4.13,2.15c1.07,0.27,2.16,0.3,3.06-0.41c1.6-1.27,3.24-1.02,4.96-0.33c2.09,0.84,3.72,2.33,5.24,3.9
		c14.86,15.31,29.7,30.64,44.53,45.98c4.67,4.83,4.58,9.55-0.24,14.23c-3.51,3.41-7.08,6.76-10.54,10.22
		c-1.62,1.62-3.42,2.87-5.52,3.73C261.18,286.36,259.92,286.36,258.67,286.36z M159.18,115.16c-26.37,0.08-47.78,21.49-47.74,47.75
		c0.04,26.28,21.56,47.78,47.78,47.75c26.31-0.04,47.72-21.48,47.69-47.78C206.89,136.53,185.43,115.09,159.18,115.16z"/>
</g>
</svg>
